<?xml version="1.0" encoding="utf-8"?>
<svg xmlns="http://www.w3.org/2000/svg" width="106" height="51" viewBox="0 0 106 51" fill="none">
<path d="M53.7244 20.2479C53.7244 22.7229 55.9685 24.1854 57.6516 24.9729C59.4468 25.8729 60.0079 26.3229 60.0079 27.1104C60.0079 28.2354 58.6614 28.798 57.3149 28.798C55.0708 28.798 53.7244 28.2354 52.7145 27.673L51.9291 31.4979C52.939 31.9479 54.9587 32.398 56.9783 32.398C61.6909 32.398 64.8326 30.0354 64.8326 26.4354C64.8326 21.8229 58.5492 21.5979 58.5492 19.5729C58.5492 18.8979 59.1102 18.3354 60.4566 18.1104C61.1299 17.9979 62.9252 17.9979 64.8326 18.8979L65.6181 15.1854C64.496 14.7354 63.1495 14.3979 61.4665 14.3979C56.8661 14.5104 53.7244 16.8729 53.7244 20.2479ZM73.1358 14.8479C72.2382 14.8479 71.565 15.2979 71.2284 16.0854L64.496 32.173H69.2086L70.1063 29.5854H75.8287L76.3897 32.173H80.5413L76.9508 14.8479H73.1358ZM73.809 19.5729L75.1555 26.0979H71.4527L73.809 19.5729ZM48.0019 14.8479L44.2992 32.2854H48.7873L52.4901 14.8479H48.0019ZM41.3818 14.8479L36.6693 26.6604L34.7617 16.5354C34.5374 15.4104 33.6397 14.7354 32.7421 14.7354H25.1121L25 15.2979C26.5709 15.6354 28.3661 16.1979 29.4881 16.7604C30.1613 17.0979 30.3858 17.4354 30.6102 18.3354L34.2008 32.2854H38.8011L46.0944 14.8479H41.3818Z" fill="#254AA5"/>
</svg>