<?xml version="1.0" encoding="utf-8"?>
<svg xmlns="http://www.w3.org/2000/svg" width="106" height="51" viewBox="0 0 106 51" fill="none">
<path d="M20.4353 32.9678H20.9385L20.4674 34.9547C20.3955 35.2464 20.4114 35.4736 20.5072 35.6195C20.6031 35.7656 20.7787 35.8384 21.0423 35.8384C21.2979 35.8384 21.5134 35.7656 21.6811 35.6195C21.8486 35.4736 21.9607 35.2464 22.0323 34.9547L22.5036 32.9678H23.0145L22.5356 35.0034C22.4318 35.441 22.2481 35.7736 21.9766 35.9926C21.713 36.2115 21.3616 36.325 20.9306 36.325C20.4993 36.325 20.2039 36.2197 20.0441 36.0007C19.8844 35.7818 19.8524 35.4492 19.9562 35.0114L20.4353 32.9678Z" fill="white"/>
<path d="M22.9431 36.236L23.7417 32.8383L25.2589 34.833C25.2989 34.89 25.3388 34.9466 25.3786 35.0115C25.4187 35.0763 25.4585 35.1494 25.5064 35.2304L26.0415 32.9679H26.5126L25.714 36.3576L24.1649 34.3222C24.1251 34.2655 24.0851 34.2087 24.0452 34.152C24.0053 34.0871 23.9732 34.0303 23.9493 33.9574L23.4142 36.2278H22.9431V36.236Z" fill="white"/>
<path d="M26.4734 36.2359L27.2401 32.9678H27.751L26.9846 36.2359H26.4734Z" fill="white"/>
<path d="M27.709 36.2359L28.4755 32.9678H30.2244L30.1206 33.4219H28.8827L28.6911 34.2328H29.9289L29.817 34.6951H28.5793L28.22 36.2277H27.709V36.2359Z" fill="white"/>
<path d="M30.025 36.2359L30.7916 32.9678H31.3025L30.5361 36.2359H30.025Z" fill="white"/>
<path d="M31.2645 36.2359L32.0311 32.9678H33.7799L33.6761 33.4219H32.4382L32.2465 34.2411H33.4845L33.3727 34.7031H32.1349L31.8875 35.7574H33.125L33.0134 36.2359H31.2645Z" fill="white"/>
<path d="M33.6021 36.2359L34.3686 32.9678H35.0554C35.5025 32.9678 35.814 32.9922 35.9817 33.0408C36.1492 33.0896 36.2931 33.1625 36.4049 33.276C36.5487 33.4219 36.6445 33.6086 36.6843 33.8275C36.7244 34.0544 36.7082 34.314 36.6445 34.5978C36.5726 34.8897 36.4687 35.141 36.325 35.3682C36.1813 35.5952 35.9976 35.7736 35.7819 35.9195C35.6224 36.0331 35.4466 36.1061 35.255 36.1549C35.0713 36.2033 34.7919 36.2277 34.4246 36.2277H33.6021V36.2359ZM34.225 35.7493H34.656C34.8877 35.7493 35.0713 35.7331 35.199 35.7005C35.327 35.6681 35.4388 35.6115 35.5425 35.5385C35.6861 35.4331 35.8061 35.3033 35.9018 35.141C35.9976 34.9869 36.0696 34.8006 36.1174 34.5898C36.1654 34.3788 36.1813 34.2006 36.1572 34.0465C36.1333 33.8924 36.0775 33.7544 35.9817 33.6491C35.9099 33.568 35.822 33.5193 35.7023 33.4868C35.5823 33.4544 35.3987 33.4382 35.1352 33.4382H34.768L34.225 35.7493Z" fill="white"/>
<path d="M38.9923 34.768L38.6488 36.2359H38.1698L38.9364 32.9678H39.7111C39.9425 32.9678 40.1023 32.9841 40.2061 33.0083C40.3098 33.0327 40.3897 33.0732 40.4537 33.138C40.5336 33.2111 40.5893 33.3165 40.6132 33.4463C40.6374 33.5759 40.6293 33.7139 40.5973 33.868C40.5574 34.0222 40.5014 34.168 40.4136 34.2978C40.3258 34.4275 40.222 34.5328 40.1102 34.6059C40.0144 34.6626 39.9106 34.7113 39.7988 34.7357C39.6871 34.7601 39.5114 34.7762 39.2876 34.7762H38.9923V34.768ZM39.1279 34.3303H39.2559C39.5353 34.3303 39.735 34.2978 39.8466 34.2328C39.9584 34.168 40.0303 34.0544 40.0704 33.8924C40.1102 33.722 40.0863 33.5924 40.0064 33.5275C39.9186 33.4544 39.7429 33.4219 39.4793 33.4219H39.3516L39.1279 34.3303Z" fill="white"/>
<path d="M42.3303 36.236L42.1705 35.3927H40.9249L40.3659 36.236H39.8308L42.1466 32.8383L42.8654 36.236H42.3303ZM41.2282 34.9466H42.0985L41.955 34.2007C41.9469 34.152 41.9391 34.0951 41.9391 34.0384C41.931 33.9736 41.931 33.9088 41.931 33.8356C41.899 33.9088 41.8671 33.9736 41.8273 34.0384C41.7952 34.1033 41.7633 34.1599 41.7312 34.2087L41.2282 34.9466Z" fill="white"/>
<path d="M43.6007 36.2359L43.952 34.7439L43.3131 32.976H43.8482L44.2476 34.087C44.2554 34.1194 44.2635 34.1518 44.2794 34.2006C44.2954 34.249 44.3033 34.2978 44.3193 34.3465C44.3513 34.2978 44.3831 34.249 44.4151 34.2006C44.4471 34.1518 44.479 34.1113 44.5108 34.0708L45.4451 32.976H45.9563L44.463 34.7357L44.1117 36.2277H43.6007V36.2359Z" fill="white"/>
<path d="M48.4643 34.6222C48.4643 34.5979 48.4723 34.525 48.4882 34.4115C48.4962 34.3141 48.5041 34.2412 48.5121 34.1764C48.4804 34.2492 48.4484 34.3222 48.4084 34.4034C48.3686 34.4764 48.3205 34.5574 48.2648 34.6305L47.0351 36.3738L46.6356 34.5979C46.6197 34.525 46.6038 34.452 46.5958 34.3872C46.5878 34.3222 46.5799 34.2492 46.5799 34.1844C46.5638 34.2492 46.5399 34.3222 46.5159 34.4034C46.492 34.4764 46.46 34.5574 46.4202 34.6384L45.7014 36.244H45.2303L46.7716 32.8383L47.2105 34.8978C47.2185 34.9305 47.2267 34.9871 47.2347 35.0601C47.2427 35.1332 47.2586 35.2304 47.2745 35.3441C47.3305 35.2466 47.4022 35.1332 47.498 34.9871C47.5221 34.9466 47.546 34.9223 47.5541 34.8978L48.9434 32.8383L48.8956 36.244H48.4243L48.4643 34.6222Z" fill="white"/>
<path d="M49.3109 36.2359L50.0775 32.9678H51.8263L51.7225 33.4219H50.4848L50.2932 34.2411H51.5308L51.419 34.7031H50.1813L49.9337 35.7574H51.1714L51.0597 36.2359H49.3109Z" fill="white"/>
<path d="M51.6407 36.236L52.4394 32.8383L53.9566 34.833C53.9965 34.89 54.0364 34.9466 54.0763 35.0115C54.1163 35.0763 54.1561 35.1494 54.2041 35.2304L54.739 32.9679H55.2103L54.4116 36.3576L52.8625 34.3222C52.8227 34.2655 52.7826 34.2087 52.7428 34.152C52.7029 34.0871 52.6708 34.0303 52.6469 33.9574L52.1118 36.2278H51.6407V36.236Z" fill="white"/>
<path d="M56.8395 33.4143L56.1767 36.2281H55.6655L56.3286 33.4143H55.498L55.6018 32.9602H57.7737L57.67 33.4143H56.8395Z" fill="white"/>
<path d="M57.3741 35.5791L57.8293 35.3846C57.8373 35.5305 57.8771 35.6441 57.965 35.7171C58.0528 35.79 58.1726 35.8305 58.3323 35.8305C58.4841 35.8305 58.6118 35.79 58.7236 35.7008C58.8355 35.6118 58.9072 35.4981 58.9393 35.3523C58.9871 35.1574 58.8753 34.9872 58.6039 34.8412C58.5639 34.8169 58.5399 34.8007 58.516 34.7926C58.2127 34.6144 58.021 34.4603 57.9411 34.3141C57.8612 34.1682 57.8452 33.998 57.893 33.7952C57.957 33.5277 58.0928 33.3168 58.3084 33.1465C58.524 32.9844 58.7636 32.8951 59.0511 32.8951C59.2825 32.8951 59.4662 32.9437 59.602 33.033C59.7377 33.1221 59.8096 33.2601 59.8335 33.4303L59.3863 33.6411C59.3464 33.5357 59.2987 33.4629 59.2347 33.4141C59.1707 33.3654 59.0909 33.3411 58.9951 33.3411C58.8594 33.3411 58.7395 33.3816 58.6437 33.4547C58.5478 33.5277 58.4841 33.6249 58.452 33.7547C58.4042 33.9493 58.5399 34.1359 58.8514 34.3061C58.8753 34.3223 58.8913 34.3304 58.9072 34.3385C59.1788 34.4844 59.3624 34.6306 59.4423 34.7764C59.5222 34.9223 59.5381 35.0926 59.4902 35.3115C59.4184 35.6197 59.2665 35.8631 59.035 36.0494C58.8034 36.2279 58.5319 36.3253 58.2127 36.3253C57.949 36.3253 57.7414 36.2604 57.5977 36.1307C57.4381 36.0009 57.3662 35.8143 57.3741 35.5791Z" fill="white"/>
<path d="M61.1373 36.2359L61.904 32.9678H62.415L61.6485 36.2359H61.1373Z" fill="white"/>
<path d="M62.3818 36.236L63.1802 32.8383L64.6975 34.833C64.7373 34.89 64.7773 34.9466 64.8172 35.0115C64.8571 35.0763 64.8971 35.1494 64.9449 35.2304L65.48 32.9679H65.9511L65.1527 36.3576L63.6035 34.3222C63.5635 34.2655 63.5236 34.2087 63.4838 34.152C63.4437 34.0871 63.4119 34.0303 63.388 33.9574L62.8529 36.2278H62.3818V36.236Z" fill="white"/>
<path d="M67.5806 33.4143L66.9178 36.2281H66.4066L67.0694 33.4143H66.2389L66.3427 32.9602H68.5149L68.4111 33.4143H67.5806Z" fill="white"/>
<path d="M68.131 36.2359L68.8975 32.9678H70.6542L70.5505 33.4219H69.3127L69.121 34.2411H70.3589L70.2469 34.7031H69.0093L68.7617 35.7574H69.9995L69.8876 36.2359H68.131Z" fill="white"/>
<path d="M71.2859 34.7683L70.9425 36.2281H70.4634L71.2299 32.9602H71.9407C72.1482 32.9602 72.308 32.9764 72.4118 33.0007C72.5236 33.0252 72.6115 33.0738 72.6752 33.1387C72.755 33.2197 72.803 33.3169 72.8269 33.4467C72.8508 33.5684 72.8429 33.7061 72.811 33.8603C72.747 34.1197 72.6432 34.3307 72.4835 34.4767C72.324 34.6225 72.1243 34.7117 71.8847 34.7443L72.6115 36.2281H72.0364L71.3416 34.7683H71.2859ZM71.4136 34.355H71.5094C71.7809 34.355 71.9646 34.3225 72.0684 34.2577C72.1721 34.1927 72.244 34.0792 72.2839 33.9089C72.324 33.7305 72.308 33.6008 72.2281 33.5279C72.1482 33.4548 71.9805 33.4143 71.7249 33.4143H71.6292L71.4136 34.355Z" fill="white"/>
<path d="M72.922 36.2359L73.6886 32.9678H75.4374L75.3336 33.4219H74.0959L73.9043 34.2328H75.1419L75.0302 34.6951H73.7926L73.4332 36.2277H72.922V36.2359Z" fill="white"/>
<path d="M77.1394 36.236L76.9796 35.3927H75.7338L75.1748 36.236H74.6399L76.9557 32.8383L77.6742 36.236H77.1394ZM76.0294 34.9466H76.8998L76.7559 34.2007C76.7479 34.152 76.74 34.0951 76.74 34.0384C76.732 33.9736 76.732 33.9088 76.732 33.8356C76.7001 33.9088 76.668 33.9736 76.6282 34.0384C76.5963 34.1033 76.5642 34.1599 76.5323 34.2087L76.0294 34.9466Z" fill="white"/>
<path d="M80.9941 33.7628C80.8823 33.633 80.7465 33.5356 80.6029 33.479C80.459 33.414 80.2995 33.3815 80.1159 33.3815C79.7723 33.3815 79.469 33.495 79.1975 33.7223C78.9259 33.9491 78.7503 34.2491 78.6624 34.6142C78.5825 34.9627 78.6144 35.2548 78.7742 35.4899C78.9259 35.717 79.1654 35.8304 79.4849 35.8304C79.6686 35.8304 79.8522 35.798 80.0359 35.725C80.2197 35.6601 80.4033 35.5547 80.5949 35.417L80.451 36.017C80.2913 36.1223 80.1238 36.1954 79.9481 36.244C79.7723 36.2926 79.5967 36.317 79.405 36.317C79.1654 36.317 78.9498 36.2765 78.7662 36.1954C78.5825 36.1142 78.4308 35.9927 78.3111 35.8304C78.1913 35.6765 78.1194 35.4899 78.0875 35.2791C78.0555 35.0683 78.0636 34.8412 78.1273 34.5979C78.1834 34.3546 78.2792 34.1357 78.4069 33.9248C78.5347 33.714 78.7023 33.5276 78.8939 33.3735C79.0858 33.2112 79.2934 33.0897 79.5168 33.0084C79.7406 32.9274 79.964 32.8869 80.1955 32.8869C80.3792 32.8869 80.5469 32.9112 80.7067 32.9679C80.8584 33.0249 81.0021 33.1059 81.1298 33.2194L80.9941 33.7628Z" fill="white"/>
<path d="M81.0427 36.2359L81.8093 32.9678H83.5581L83.4542 33.4219H82.2165L82.0249 34.2411H83.2625L83.1507 34.7031H81.9131L81.6656 35.7574H82.9033L82.7914 36.2359H81.0427Z" fill="white"/>
<path d="M71.7489 30.1216H68.2433L73.1143 12.2576H76.6198L71.7489 30.1216Z" fill="white"/>
<path d="M69.9276 12.817C69.688 12.4764 69.3127 12.3062 68.8017 12.3062H49.5415L48.591 15.8091H52.0967H66.1107L65.0887 19.5475H51.0745V19.5394H47.5689L44.6624 30.2028H48.168L50.1164 23.0506H65.8711C66.3662 23.0506 66.8295 22.8803 67.2605 22.5396C67.6918 22.1991 67.9792 21.7775 68.1149 21.2747L70.0633 14.1225C70.215 13.5874 70.1674 13.1575 69.9276 12.817Z" fill="white"/>
<path d="M42.6188 29.0027C42.4271 29.708 41.7883 30.2028 41.0695 30.2028H22.9991C22.5041 30.2028 22.1368 30.0324 21.8971 29.6918C21.6575 29.3513 21.6017 28.9295 21.7453 28.4268L26.1533 12.3062H29.6588L25.722 26.7078H39.7441L43.6807 12.3062H47.1863L42.6188 29.0027Z" fill="white"/>
<path d="M82.672 12.2904L87.1039 21.2426L77.7852 30.1949L82.672 12.2904Z" fill="#098041"/>
<path d="M79.5576 12.2904L83.9893 21.2426L74.6626 30.1949L79.5576 12.2904Z" fill="#E97626"/>
</svg>