<?xml version="1.0" encoding="utf-8"?>
<svg xmlns="http://www.w3.org/2000/svg" width="106" height="51" viewBox="0 0 106 51" fill="none">
<path d="M39.6682 35.6687C39.5573 35.5554 39.4233 35.4684 39.2708 35.4047C39.1168 35.3426 38.949 35.3116 38.7672 35.3116C38.6702 35.3116 38.5701 35.3193 38.4669 35.3364C38.3622 35.3535 38.2605 35.383 38.1604 35.4249C38.0603 35.4668 37.9664 35.5259 37.8755 35.6004C37.7847 35.6749 37.7077 35.7697 37.6399 35.883C37.5321 35.7044 37.3873 35.5647 37.2041 35.4622C37.0208 35.3612 36.8113 35.31 36.5742 35.31C36.4941 35.31 36.4125 35.3178 36.3277 35.3317C36.243 35.3457 36.1583 35.3721 36.0752 35.4078C35.992 35.4436 35.9119 35.4917 35.8349 35.5538C35.7595 35.6159 35.6902 35.6936 35.627 35.7868V35.3939H34.9586V38.6069H35.6347V36.8257C35.6347 36.689 35.6563 36.5679 35.6994 36.4623C35.7425 36.3567 35.7995 36.2666 35.8719 36.1952C35.9443 36.1237 36.0274 36.0694 36.1245 36.0321C36.2215 35.9948 36.3247 35.9762 36.434 35.9762C36.6619 35.9762 36.8375 36.0492 36.9638 36.1936C37.0885 36.3396 37.1517 36.5461 37.1517 36.8179V38.6053H37.8278V36.8241C37.8278 36.6875 37.8493 36.5663 37.8925 36.4607C37.9356 36.3551 37.9926 36.2651 38.065 36.1936C38.1373 36.1222 38.2205 36.0678 38.3175 36.0306C38.4146 35.9933 38.5177 35.9747 38.6271 35.9747C38.855 35.9747 39.0306 36.0476 39.1569 36.1921C39.2816 36.338 39.3448 36.5446 39.3448 36.8163V38.6038H40.0209V36.585C40.0209 36.3971 39.9901 36.2247 39.9285 36.0678C39.8653 35.9172 39.7791 35.7821 39.6682 35.6687Z" fill="white"/>
<path d="M43.2319 35.7853C43.121 35.6424 42.984 35.5275 42.8192 35.4421C42.6544 35.3567 42.4588 35.3132 42.2309 35.3132C42.0076 35.3132 41.7981 35.3551 41.6056 35.439C41.4131 35.5228 41.2437 35.6393 41.1005 35.7899C40.9557 35.939 40.8433 36.1176 40.7616 36.3241C40.68 36.5307 40.6384 36.7574 40.6384 37.0028C40.6384 37.2481 40.68 37.4749 40.7616 37.6814C40.8433 37.8879 40.9572 38.0665 41.1005 38.2156C41.2452 38.3647 41.4131 38.4827 41.6056 38.5666C41.7981 38.6504 42.0076 38.6924 42.2309 38.6924C42.4588 38.6924 42.6559 38.6504 42.8192 38.565C42.984 38.4796 43.121 38.3663 43.2319 38.2234V38.6085H43.9265V35.3955H43.2319V35.7853ZM43.2057 37.4112C43.1595 37.537 43.0933 37.6441 43.0102 37.7358C42.9254 37.8274 42.8253 37.8988 42.7083 37.9516C42.5913 38.0044 42.4603 38.0308 42.3156 38.0308C42.1646 38.0308 42.0307 38.0029 41.9121 37.9485C41.7935 37.8942 41.6934 37.8196 41.6118 37.7264C41.5301 37.6333 41.467 37.5246 41.4223 37.3988C41.3777 37.273 41.3561 37.141 41.3561 36.9997C41.3561 36.8583 41.3777 36.7263 41.4223 36.6006C41.467 36.4748 41.5301 36.3661 41.6118 36.2729C41.6934 36.1797 41.7935 36.1067 41.9121 36.0508C42.0307 35.9965 42.1646 35.9685 42.3156 35.9685C42.4603 35.9685 42.5897 35.9949 42.7083 36.0477C42.8253 36.1005 42.927 36.1719 43.0102 36.2636C43.0949 36.3552 43.1595 36.4639 43.2057 36.5881C43.2519 36.7139 43.275 36.849 43.275 36.9966C43.275 37.1441 43.2519 37.2854 43.2057 37.4112Z" fill="white"/>
<path d="M47.1222 36.9966C46.9266 36.8428 46.6556 36.7419 46.3075 36.6891L45.978 36.6394C45.904 36.6285 45.8363 36.6161 45.7716 36.6006C45.7069 36.5866 45.6515 36.5664 45.6053 36.5415C45.559 36.5167 45.5221 36.4856 45.4944 36.4484C45.4666 36.4111 45.4528 36.363 45.4528 36.3071C45.4528 36.1937 45.5051 36.1005 45.6114 36.0306C45.7161 35.9607 45.864 35.925 46.055 35.925C46.1551 35.925 46.2521 35.9343 46.3491 35.9514C46.4461 35.9701 46.537 35.9918 46.6233 36.0182C46.7095 36.0446 46.788 36.0741 46.8589 36.1067C46.9297 36.1393 46.9898 36.1704 47.0391 36.1983L47.3379 35.6517C47.1715 35.5446 46.9775 35.4607 46.7557 35.4017C46.5339 35.3427 46.2983 35.3132 46.0473 35.3132C45.844 35.3132 45.6607 35.3365 45.499 35.3846C45.3373 35.4327 45.1987 35.5011 45.0847 35.5896C44.9707 35.6781 44.883 35.7853 44.8213 35.9126C44.7597 36.0399 44.7305 36.1828 44.7305 36.3412C44.7305 36.6006 44.8213 36.8102 45.0046 36.9702C45.1879 37.1301 45.4559 37.2342 45.8116 37.2839L46.1443 37.3273C46.3353 37.3537 46.4754 37.3972 46.5632 37.4562C46.6525 37.5152 46.6956 37.5913 46.6956 37.683C46.6956 37.8041 46.634 37.8988 46.5124 37.9703C46.3907 38.0401 46.209 38.0759 45.9703 38.0759C45.8393 38.0759 45.7223 38.0665 45.6191 38.0495C45.5159 38.0308 45.422 38.0075 45.3357 37.978C45.251 37.9485 45.174 37.9128 45.1063 37.874C45.0385 37.8351 44.9754 37.7932 44.9184 37.7482L44.5965 38.2746C44.712 38.3616 44.8321 38.433 44.9584 38.4858C45.0847 38.5386 45.2094 38.5821 45.3311 38.6116C45.4528 38.6411 45.5683 38.6613 45.6776 38.6722C45.7854 38.6815 45.8809 38.6877 45.9641 38.6877C46.192 38.6877 46.3969 38.6613 46.577 38.6101C46.7572 38.5588 46.9097 38.4858 47.0329 38.3942C47.1561 38.301 47.2501 38.1908 47.3163 38.0619C47.381 37.933 47.4149 37.7917 47.4149 37.6379C47.4149 37.3646 47.3178 37.1503 47.1222 36.9966Z" fill="white"/>
<path d="M53.6306 35.7791C53.4982 35.6301 53.3396 35.5151 53.1547 35.4344C52.9699 35.3521 52.7666 35.3117 52.5449 35.3117C52.3092 35.3117 52.0952 35.3521 51.9011 35.4344C51.7071 35.5167 51.5407 35.6316 51.4006 35.7791C51.2604 35.9282 51.1526 36.1068 51.0741 36.3134C50.9971 36.5215 50.957 36.7497 50.957 37.0013C50.957 37.256 50.9971 37.4874 51.0772 37.6955C51.1572 37.9036 51.2681 38.0806 51.4129 38.2281C51.5577 38.3757 51.7286 38.489 51.9288 38.5698C52.129 38.6505 52.3477 38.6909 52.588 38.6909C52.8298 38.6909 53.0593 38.6567 53.2779 38.59C53.4966 38.5232 53.703 38.4052 53.8986 38.2375L53.5521 37.7374C53.4196 37.8446 53.2718 37.9284 53.1116 37.9874C52.9514 38.0464 52.7913 38.0759 52.6311 38.0759C52.5187 38.0759 52.4093 38.0604 52.3046 38.0294C52.1999 37.9983 52.1059 37.9502 52.0212 37.8834C51.9365 37.8182 51.8657 37.7327 51.8056 37.6303C51.7456 37.5278 51.704 37.4035 51.6824 37.2575H54.0372C54.0418 37.2172 54.0449 37.1752 54.048 37.1302C54.0495 37.0852 54.0511 37.0401 54.0511 36.9967C54.0511 36.7466 54.0141 36.5183 53.9402 36.3102C53.8647 36.1068 53.7615 35.9282 53.6306 35.7791ZM51.687 36.7264C51.7055 36.61 51.7363 36.5028 51.7794 36.4065C51.8241 36.3087 51.8811 36.2248 51.9504 36.155C52.0197 36.0851 52.1029 36.0307 52.1999 35.9919C52.2969 35.9546 52.4063 35.9344 52.531 35.9344C52.7528 35.9344 52.933 36.0043 53.0731 36.1425C53.2133 36.2807 53.301 36.4764 53.3396 36.7264H51.687Z" fill="white"/>
<path d="M62.8649 35.7853C62.7541 35.6424 62.617 35.5275 62.4522 35.4421C62.2874 35.3567 62.0918 35.3132 61.8639 35.3132C61.6406 35.3132 61.4311 35.3551 61.2386 35.439C61.0461 35.5228 60.8767 35.6393 60.7335 35.7899C60.5887 35.939 60.4763 36.1176 60.3946 36.3241C60.313 36.5307 60.2714 36.7574 60.2714 37.0028C60.2714 37.2481 60.313 37.4749 60.3946 37.6814C60.4763 37.8879 60.5902 38.0665 60.7335 38.2156C60.8782 38.3647 61.0461 38.4827 61.2386 38.5666C61.4311 38.6504 61.6406 38.6924 61.8639 38.6924C62.0918 38.6924 62.2889 38.6504 62.4522 38.565C62.617 38.4796 62.7541 38.3663 62.8649 38.2234V38.6085H63.5595V35.3955H62.8649V35.7853ZM62.8372 37.4112C62.791 37.537 62.7248 37.6441 62.6416 37.7358C62.5569 37.8274 62.4568 37.8988 62.3382 37.9516C62.2212 38.0044 62.0903 38.0308 61.9455 38.0308C61.7946 38.0308 61.6606 38.0029 61.542 37.9485C61.4234 37.8942 61.3233 37.8196 61.2417 37.7264C61.1601 37.6333 61.0969 37.5246 61.0522 37.3988C61.0076 37.273 60.986 37.141 60.986 36.9997C60.986 36.8583 61.0076 36.7263 61.0522 36.6006C61.0969 36.4748 61.1601 36.3661 61.2417 36.2729C61.3233 36.1797 61.4234 36.1067 61.542 36.0508C61.6606 35.9965 61.7946 35.9685 61.9455 35.9685C62.0903 35.9685 62.2212 35.9949 62.3382 36.0477C62.4553 36.1005 62.5569 36.1719 62.6416 36.2636C62.7263 36.3552 62.791 36.4639 62.8372 36.5881C62.8834 36.7139 62.9065 36.849 62.9065 36.9966C62.9065 37.1441 62.885 37.2854 62.8372 37.4112Z" fill="white"/>
<path d="M50.1023 37.9671C49.9899 38.009 49.8805 38.0308 49.7712 38.0308C49.7003 38.0308 49.6341 38.0199 49.574 37.9966C49.5124 37.9749 49.4601 37.9391 49.4139 37.891C49.3677 37.8428 49.3322 37.7807 49.3061 37.7046C49.2799 37.6285 49.266 37.5369 49.266 37.4298V36.0321H50.3826V35.3954H49.266V34.4233H48.5684V35.3954H47.9338V36.0321H48.5684V37.4437C48.5684 37.8708 48.6685 38.1861 48.8687 38.3879C49.0689 38.5898 49.3507 38.6908 49.7111 38.6908C49.9129 38.6908 50.0946 38.6597 50.2548 38.5976C50.361 38.5557 50.4596 38.5091 50.552 38.4563L50.3148 37.8693C50.2471 37.9065 50.1778 37.9391 50.1023 37.9671Z" fill="white"/>
<path d="M56.3781 35.3117C56.1825 35.3117 56.007 35.3474 55.8499 35.4189C55.6928 35.4903 55.5603 35.6627 55.4541 35.8164V35.3956H54.8226V38.6086H55.4602V36.8414C55.4602 36.7047 55.4787 36.5836 55.5172 36.4764C55.5542 36.3693 55.6065 36.2792 55.6728 36.2046C55.739 36.1301 55.8191 36.0758 55.9115 36.0369C56.0039 35.9997 56.1071 35.9795 56.218 35.9795C56.3027 35.9795 56.3935 35.9888 56.4905 36.009C56.5398 36.0198 56.586 36.0323 56.6307 36.0462L56.8355 35.3754C56.7801 35.3583 56.7231 35.3428 56.6646 35.3319C56.5799 35.3195 56.4844 35.3117 56.3781 35.3117Z" fill="white"/>
<path d="M66.0406 35.3117C65.845 35.3117 65.6694 35.3474 65.5123 35.4189C65.3553 35.4903 65.2228 35.6627 65.1165 35.8164V35.3956H64.4851V38.6086H65.1227V36.8414C65.1227 36.7047 65.1412 36.5836 65.1797 36.4764C65.2166 36.3693 65.269 36.2792 65.3352 36.2046C65.4015 36.1301 65.4815 36.0758 65.5739 36.0369C65.6663 35.9997 65.7695 35.9795 65.8804 35.9795C65.9651 35.9795 66.056 35.9888 66.153 36.009C66.2023 36.0198 66.2485 36.0323 66.2932 36.0462L66.498 35.3754C66.4425 35.3583 66.3856 35.3428 66.327 35.3319C66.2423 35.3195 66.1468 35.3117 66.0406 35.3117Z" fill="white"/>
<path d="M69.2871 34.0895V35.7838C69.1762 35.6409 69.0392 35.526 68.8744 35.4406C68.7096 35.3551 68.514 35.3117 68.2861 35.3117C68.0627 35.3117 67.8533 35.3536 67.6608 35.4375C67.4683 35.5213 67.2989 35.6378 67.1556 35.7884C67.0109 35.9375 66.8984 36.1161 66.8168 36.3226C66.7352 36.5292 66.6936 36.7559 66.6936 37.0013C66.6936 37.2466 66.7352 37.4734 66.8168 37.6799C66.8984 37.8864 67.0124 38.065 67.1556 38.2141C67.3004 38.3632 67.4683 38.4812 67.6608 38.5651C67.8533 38.6489 68.0627 38.6909 68.2861 38.6909C68.514 38.6909 68.7111 38.6489 68.8744 38.5635C69.0376 38.4781 69.1762 38.3647 69.2871 38.2219V38.607H69.9817V34.088H69.2871V34.0895ZM69.2594 37.4112C69.2132 37.537 69.147 37.6442 69.0638 37.7358C68.9791 37.8274 68.879 37.8989 68.7619 37.9517C68.6449 38.0045 68.514 38.0309 68.3692 38.0309C68.2183 38.0309 68.0843 38.0029 67.9657 37.9486C67.8471 37.8942 67.747 37.8197 67.6654 37.7265C67.5838 37.6333 67.5206 37.5246 67.476 37.3988C67.4313 37.273 67.4097 37.141 67.4097 36.9997C67.4097 36.8584 67.4313 36.7264 67.476 36.6006C67.5206 36.4748 67.5838 36.3661 67.6654 36.2729C67.747 36.1798 67.8471 36.1068 67.9657 36.0509C68.0843 35.9965 68.2183 35.9686 68.3692 35.9686C68.514 35.9686 68.6434 35.995 68.7619 36.0478C68.879 36.1006 68.9806 36.172 69.0638 36.2636C69.1485 36.3552 69.2132 36.4639 69.2594 36.5882C69.3056 36.714 69.3287 36.8491 69.3287 36.9966C69.3287 37.1441 69.3071 37.2854 69.2594 37.4112Z" fill="white"/>
<path d="M58.0414 36.2589C58.1307 36.1688 58.2355 36.0974 58.3571 36.0477C58.4788 35.998 58.6112 35.9716 58.7529 35.9716C58.9085 35.9716 59.0548 35.9965 59.1888 36.0477C59.3181 36.0959 59.4306 36.1642 59.526 36.2511L59.8602 35.6905C59.7355 35.5896 59.5938 35.5073 59.4367 35.4421C59.2273 35.3567 58.9993 35.3132 58.7529 35.3132C58.5065 35.3132 58.2786 35.3567 58.0691 35.4421C57.8597 35.5275 57.6795 35.6471 57.527 35.7977C57.3745 35.9483 57.256 36.1269 57.1697 36.3319C57.0835 36.5369 57.0403 36.7605 57.0403 37.0028C57.0403 37.245 57.0835 37.4671 57.1697 37.6736C57.256 37.8786 57.3761 38.0572 57.527 38.2079C57.6795 38.3585 57.8597 38.4781 58.0691 38.5635C58.2786 38.6489 58.5065 38.6924 58.7529 38.6924C58.9993 38.6924 59.2273 38.6489 59.4367 38.5635C59.5938 38.4983 59.7355 38.4159 59.8602 38.315L59.526 37.7544C59.4306 37.8414 59.3181 37.9081 59.1888 37.9578C59.0548 38.0075 58.91 38.0339 58.7529 38.0339C58.6112 38.0339 58.4788 38.0091 58.3571 37.9578C58.2355 37.9081 58.1292 37.8367 58.0414 37.7466C57.9521 37.6566 57.8828 37.5479 57.832 37.4221C57.7811 37.2963 57.7549 37.1565 57.7549 37.0043C57.7549 36.8521 57.7811 36.7139 57.832 36.5866C57.8828 36.4577 57.9521 36.349 58.0414 36.2589Z" fill="white"/>
<path d="M71.4463 38.1383C71.4925 38.1383 71.5357 38.1476 71.5772 38.1647C71.6173 38.1818 71.6527 38.2051 71.6835 38.2346C71.7143 38.2641 71.7374 38.2983 71.7543 38.3386C71.7713 38.379 71.7805 38.4209 71.7805 38.466C71.7805 38.511 71.7713 38.5529 71.7543 38.5933C71.7374 38.6337 71.7128 38.6679 71.6835 38.6974C71.6527 38.7269 71.6173 38.7502 71.5772 38.7688C71.5372 38.7859 71.4941 38.7952 71.4463 38.7952C71.3986 38.7952 71.3555 38.7859 71.3139 38.7688C71.2723 38.7517 71.2369 38.7284 71.2076 38.6974C71.1768 38.6679 71.1537 38.6321 71.1368 38.5933C71.1198 38.5529 71.1106 38.511 71.1106 38.466C71.1106 38.4209 71.1198 38.379 71.1368 38.3386C71.1537 38.2983 71.1768 38.2641 71.2076 38.2346C71.2384 38.2051 71.2738 38.1818 71.3139 38.1647C71.3539 38.1461 71.3986 38.1383 71.4463 38.1383ZM71.4463 38.702C71.4787 38.702 71.5095 38.6958 71.5372 38.6834C71.5649 38.671 71.5911 38.6539 71.6111 38.6321C71.6327 38.6104 71.6481 38.5855 71.6604 38.5576C71.6727 38.5296 71.6789 38.4986 71.6789 38.4644C71.6789 38.4318 71.6727 38.4007 71.6604 38.3728C71.6481 38.3433 71.6311 38.3184 71.6111 38.2983C71.5896 38.2765 71.5649 38.261 71.5372 38.2486C71.5095 38.2361 71.4787 38.2299 71.4463 38.2299C71.4124 38.2299 71.3816 38.2361 71.3539 38.2486C71.3247 38.261 71.3 38.2781 71.2785 38.2983C71.2569 38.32 71.24 38.3448 71.2292 38.3728C71.2169 38.4023 71.2107 38.4318 71.2107 38.4644C71.2107 38.497 71.2169 38.5281 71.2292 38.5576C71.2415 38.5855 71.2584 38.6119 71.2785 38.6321C71.3 38.6539 71.3247 38.671 71.3539 38.6834C71.3816 38.6958 71.4124 38.702 71.4463 38.702ZM71.4648 38.32C71.5049 38.32 71.5341 38.3293 71.5541 38.3464C71.5742 38.3635 71.5849 38.3883 71.5849 38.4178C71.5849 38.4411 71.5772 38.4598 71.5634 38.4753C71.548 38.4908 71.528 38.5001 71.4987 38.5048L71.588 38.6088H71.491L71.4109 38.5079H71.4017V38.6088H71.32V38.3184H71.4648V38.32ZM71.4017 38.3914V38.4442H71.4617C71.4741 38.4442 71.4833 38.4427 71.491 38.438C71.4972 38.4334 71.5018 38.4271 71.5018 38.4178C71.5018 38.4085 71.4987 38.4023 71.491 38.3976C71.4848 38.393 71.4741 38.3914 71.4617 38.3914H71.4017Z" fill="white"/>
<path d="M52.4478 29.8719C54.9655 29.8719 57.0065 25.6217 57.0065 20.3787C57.0065 15.1358 54.9655 10.8856 52.4478 10.8856C49.9301 10.8856 47.8892 15.1358 47.8892 20.3787C47.8892 25.6217 49.9301 29.8719 52.4478 29.8719Z" fill="#EA610A"/>
<path d="M47.8891 20.3788C47.8891 16.5306 49.6726 13.1032 52.4478 10.8856C50.401 9.25039 47.8152 8.27203 45 8.27203C38.3684 8.27203 32.9935 13.6934 32.9935 20.3788C32.9935 27.0642 38.3699 32.4855 45 32.4855C47.8137 32.4855 50.401 31.5071 52.4478 29.8719C49.6726 27.6543 47.8891 24.2285 47.8891 20.3788Z" fill="#E20D17"/>
<path d="M71.089 26.9275V26.5734H70.9473V26.4756H71.337V26.5734H71.1953V26.9275H71.089ZM71.8421 26.9275V26.6138L71.742 26.884H71.6311L71.531 26.6138V26.926H71.4263V26.4741H71.5772L71.6881 26.7629L71.799 26.4741H71.9499V26.926H71.8421V26.9275Z" fill="#F59E00"/>
<path d="M59.8957 8.27203C57.0819 8.27203 54.4946 9.25039 52.4478 10.8856C55.2246 13.1032 57.0065 16.5306 57.0065 20.3788C57.0065 24.227 55.223 27.6543 52.4478 29.8719C54.4946 31.5071 57.0804 32.4855 59.8957 32.4855C66.5273 32.4855 71.9022 27.0642 71.9022 20.3788C71.9022 13.6934 66.5273 8.27203 59.8957 8.27203Z" fill="#F59E00"/>
</svg>