<?xml version="1.0" encoding="utf-8"?>
<svg xmlns="http://www.w3.org/2000/svg" width="106" height="51" viewBox="0 0 106 51" fill="none">
<path d="M85.3993 17.2247C84.8483 15.6062 83.2986 14.4354 81.4735 14.4354H81.4391C80.2682 14.4354 79.2007 14.9175 78.4431 15.7095C77.6855 14.9175 76.6179 14.4354 75.4471 14.4354H75.4127C74.3796 14.4354 73.4153 14.8142 72.6922 15.434V15.1241C72.6577 14.8142 72.4167 14.5387 72.0723 14.5387H69.2829C68.9386 14.5387 68.6631 14.8142 68.6631 15.1585V30.3106C68.6631 30.655 68.9386 30.9305 69.2829 30.9305H72.0723C72.3822 30.9305 72.6233 30.6894 72.6922 30.414V19.532C72.6922 19.4975 72.6922 19.4631 72.6922 19.4287C72.7266 18.9466 73.1054 18.5333 73.6564 18.4989H73.7597H74.0352H74.1385C74.3796 18.5333 74.5862 18.6022 74.7239 18.7399C74.965 18.9466 75.1027 19.2221 75.1027 19.5664V30.3795C75.1027 30.7239 75.3782 30.9994 75.7226 30.9994H78.512C78.8563 30.9994 79.0974 30.7239 79.1318 30.414V19.532C79.1318 19.1876 79.304 18.8433 79.5795 18.6711C79.7172 18.5678 79.8894 18.5333 80.096 18.4989H80.1994H80.4748H80.5782C81.198 18.5678 81.5424 19.0154 81.5424 19.532V30.3451C81.5424 30.6894 81.8179 30.9649 82.1622 30.9649H84.9516C85.296 30.9649 85.5715 30.6894 85.5715 30.3451V18.6711C85.6059 17.879 85.5026 17.5691 85.3993 17.2247Z" fill="#17BAED"/>
<path d="M66.4931 14.5731H64.9091V11.9904C64.9091 11.6804 64.668 11.4394 64.3581 11.4394C64.3236 11.4394 64.2892 11.4394 64.2548 11.4394C62.4985 11.9215 62.8429 14.3665 59.6058 14.5731H59.5369H59.2959C59.2614 14.5731 59.1926 14.5731 59.1581 14.5731C58.8826 14.642 58.676 14.8831 58.676 15.1585V17.9479C58.676 18.2923 58.9515 18.5678 59.2959 18.5678H60.9833V30.3795C60.9833 30.7239 61.2588 30.9994 61.6031 30.9994H64.3581C64.7024 30.9994 64.9779 30.7239 64.9779 30.3795V18.5678H66.5276C66.8719 18.5678 67.1474 18.2923 67.1474 17.9479V15.1585C67.113 14.8486 66.8375 14.5731 66.4931 14.5731Z" fill="#17BAED"/>
<path d="M56.4724 14.5731H53.6831C53.3387 14.5731 53.0632 14.8486 53.0632 15.1929V20.9438C53.0632 21.2882 52.7533 21.5981 52.4089 21.5981H51.2381C50.8593 21.5981 50.5838 21.3226 50.5838 20.9438V15.1929C50.5838 14.8486 50.3083 14.5731 49.9639 14.5731H47.1745C46.8302 14.5731 46.5547 14.8486 46.5547 15.1929V21.5293C46.5547 23.9398 48.2765 25.6272 50.6526 25.6272C50.6526 25.6272 52.4433 25.6272 52.5122 25.6272C52.8222 25.6616 53.0976 25.9371 53.0976 26.2815C53.0976 26.6259 52.8566 26.9014 52.5122 26.9358H52.4778H48.4143C48.0699 26.9358 47.7944 27.2113 47.7944 27.5557V30.345C47.7944 30.6894 48.0699 30.9649 48.4143 30.9649H52.9599C55.3705 30.9649 57.0579 29.2431 57.0579 26.8669V15.1929C57.0923 14.8486 56.8168 14.5731 56.4724 14.5731Z" fill="#17BAED"/>
<path d="M29.7151 14.5731H23.6199C23.2755 14.5731 23 14.8486 23 15.1929V17.9134V17.9478V26.7292V30.345C23 30.6894 23.2411 30.9649 23.551 30.9649H23.6199H26.4092C26.7536 30.9649 27.0291 30.6894 27.0291 30.345V26.1093H29.7151C31.9535 26.1093 33.5032 24.5597 33.5032 22.3213V18.3611C33.5032 16.1227 31.9535 14.5731 29.7151 14.5731ZM29.4741 19.7041V21.0127V21.4259C29.4741 21.7703 29.1986 22.0802 28.8198 22.0802H27.0635V18.6366H28.8198C29.1642 18.6366 29.4741 18.9121 29.4741 19.2909V19.7041Z" fill="#17BAED"/>
<path d="M40.5972 14.6075H36.7403C36.396 14.6075 36.1205 14.883 36.1205 15.193V16.2949C36.1205 16.2949 36.1205 16.2949 36.1205 16.3294C36.1205 16.3294 36.1205 16.3294 36.1205 16.3638V17.8446C36.1205 18.189 36.4304 18.4644 36.7748 18.4644H40.4595C40.735 18.4989 40.9761 18.7399 41.0105 19.0499V19.3942C40.9761 19.7042 40.735 19.9452 40.4595 19.9797H38.6344C36.2238 19.9797 34.4675 21.5982 34.4675 23.871V27.0392V27.108C34.4675 29.3464 35.9483 30.9649 38.3589 30.9649H43.4211C44.3164 30.9649 45.074 30.2762 45.074 29.4153V18.7744C45.074 16.2261 43.7654 14.6075 40.5972 14.6075ZM41.0449 26.2471V26.6948C41.0449 26.7292 41.0449 26.7637 41.0449 26.7981C41.0449 26.8325 41.0449 26.867 41.0105 26.9014C40.9072 27.1425 40.6661 27.3147 40.3906 27.3147H39.2198C38.841 27.3147 38.5655 27.0392 38.5655 26.6948V26.1782C38.5655 26.1782 38.5655 26.1782 38.5655 26.1438V24.7319V24.5942V24.3187C38.5655 23.9743 38.8754 23.6988 39.2198 23.6988H40.3906C40.7694 23.6988 41.0449 23.9743 41.0449 24.3187V26.2471V26.2471Z" fill="#17BAED"/>
</svg>